<?xml version="1.0" encoding="UTF-8" standalone="no"?>
<!-- Created with Inkscape (http://www.inkscape.org/) -->
<svg
   xmlns:dc="http://purl.org/dc/elements/1.1/"
   xmlns:cc="http://web.resource.org/cc/"
   xmlns:rdf="http://www.w3.org/1999/02/22-rdf-syntax-ns#"
   xmlns:svg="http://www.w3.org/2000/svg"
   xmlns="http://www.w3.org/2000/svg"
   xmlns:sodipodi="http://sodipodi.sourceforge.net/DTD/sodipodi-0.dtd"
   xmlns:inkscape="http://www.inkscape.org/namespaces/inkscape"
   width="210mm"
   height="297mm"
   id="svg2"
   sodipodi:version="0.32"
   inkscape:version="0.45.1"
   sodipodi:docbase="C:\Documents and Settings\nischt.michael\Desktop"
   sodipodi:docname="Blobs.svg"
   inkscape:output_extension="org.inkscape.output.svg.inkscape">
  <defs
     id="defs4">
    <linearGradient
       id="linearGradient3142">
      <stop
         style="stop-color:#000000;stop-opacity:1;"
         offset="0"
         id="stop3144" />
      <stop
         id="stop3157"
         offset="0.54128438"
         style="stop-color:#000000;stop-opacity:0.93548387;" />
      <stop
         style="stop-color:#000000;stop-opacity:0.27096775;"
         offset="1"
         id="stop3146" />
    </linearGradient>
  </defs>
  <sodipodi:namedview
     id="base"
     pagecolor="#ffffff"
     bordercolor="#666666"
     borderopacity="1.0"
     inkscape:pageopacity="0.0"
     inkscape:pageshadow="2"
     inkscape:zoom="1.482455"
     inkscape:cx="393.59439"
     inkscape:cy="512.20611"
     inkscape:document-units="px"
     inkscape:current-layer="layer1"
     inkscape:window-width="865"
     inkscape:window-height="751"
     inkscape:window-x="269"
     inkscape:window-y="163" />
  <metadata
     id="metadata7">
    <rdf:RDF>
      <cc:Work
         rdf:about="">
        <dc:format>image/svg+xml</dc:format>
        <dc:type
           rdf:resource="http://purl.org/dc/dcmitype/StillImage" />
      </cc:Work>
    </rdf:RDF>
  </metadata>
  <g
     inkscape:label="Ebene 1"
     inkscape:groupmode="layer"
     id="layer1">
    <g
       id="g24782">
      <path
         id="path21770"
         d="M 245,556.47119 C 231.2,556.47119 220,567.67121 220,581.47119 C 220,587.09322 221.86378,592.29369 225,596.47119 C 211.2,596.47119 200,607.67121 200,621.47119 C 200,635.27119 211.2,646.47118 225,646.47119 C 233.17797,646.47119 240.43795,642.54791 245,636.47119 C 249.56205,642.54791 256.82203,646.47118 265,646.47119 C 278.8,646.47119 289.99999,635.27121 290,621.47119 C 290,607.67119 278.79999,596.47118 265,596.47119 C 268.13623,592.29369 270,587.09323 270,581.47119 C 270,567.67119 258.79999,556.47118 245,556.47119 z "
         style="fill:#c0c0c0;fill-opacity:1;fill-rule:evenodd;stroke:none;stroke-width:1px;stroke-linecap:butt;stroke-linejoin:miter;stroke-opacity:1" />
      <path
         transform="matrix(0.6110799,0,0,0.6036277,119.38272,426.48045)"
         d="M 246.47722 405.86456 A 40.911179 41.416256 0 1 1  164.65486,405.86456 A 40.911179 41.416256 0 1 1  246.47722 405.86456 z"
         sodipodi:ry="41.416256"
         sodipodi:rx="40.911179"
         sodipodi:cy="405.86456"
         sodipodi:cx="205.56604"
         id="path21772"
         style="fill:#565656;fill-opacity:1;fill-rule:evenodd;stroke:none;stroke-width:1.64651775;stroke-linecap:butt;stroke-linejoin:miter;stroke-miterlimit:4;stroke-dasharray:none;stroke-opacity:1"
         sodipodi:type="arc" />
    </g>
    <g
       id="g24823"
       transform="translate(154.51639,0)">
      <path
         id="path24788"
         d="M 416.87606,556.47119 C 403.07606,556.47119 391.87606,567.67121 391.87606,581.47119 C 391.87606,587.09322 393.73984,592.29369 396.87606,596.47119 C 383.07606,596.47119 371.87606,607.67121 371.87606,621.47119 C 371.87606,635.27119 383.07606,646.47118 396.87606,646.47119 C 405.05403,646.47119 412.31401,642.54791 416.87606,636.47119 C 421.43811,642.54791 428.69809,646.47118 436.87606,646.47119 C 450.67606,646.47119 461.87605,635.27121 461.87606,621.47119 C 461.87606,607.67119 450.67605,596.47118 436.87606,596.47119 C 440.01229,592.29369 441.87606,587.09323 441.87606,581.47119 C 441.87606,567.67119 430.67605,556.47118 416.87606,556.47119 z "
         style="fill:#c0c0c0;fill-opacity:1;fill-rule:evenodd;stroke:none;stroke-width:1px;stroke-linecap:butt;stroke-linejoin:miter;stroke-opacity:1" />
      <path
         transform="matrix(0.6110799,0,0,0.6036277,291.25878,426.48045)"
         d="M 246.47722 405.86456 A 40.911179 41.416256 0 1 1  164.65486,405.86456 A 40.911179 41.416256 0 1 1  246.47722 405.86456 z"
         sodipodi:ry="41.416256"
         sodipodi:rx="40.911179"
         sodipodi:cy="405.86456"
         sodipodi:cx="205.56604"
         id="path24790"
         style="fill:#565656;fill-opacity:1;fill-rule:evenodd;stroke:none;stroke-width:1.64651775;stroke-linecap:butt;stroke-linejoin:miter;stroke-miterlimit:4;stroke-dasharray:none;stroke-opacity:1"
         sodipodi:type="arc" />
    </g>
    <g
       id="g27836">
      <path
         id="path24829"
         d="M 407.69623,696.47151 C 421.49623,696.47151 432.69623,685.27149 432.69623,671.47151 C 432.69623,665.84948 430.83245,660.64901 427.69623,656.47151 C 441.49623,656.47151 452.69623,645.27149 452.69623,631.47151 C 452.69623,617.67151 441.49623,606.47152 427.69623,606.47151 C 419.51826,606.47151 412.25828,610.39479 407.69623,616.47151 C 403.13418,610.39479 395.8742,606.47152 387.69623,606.47151 C 373.89623,606.47151 362.69624,617.67149 362.69623,631.47151 C 362.69623,645.27151 373.89624,656.47152 387.69623,656.47151 C 384.56,660.64901 382.69623,665.84947 382.69623,671.47151 C 382.69623,685.27151 393.89624,696.47152 407.69623,696.47151 z "
         style="fill:#565656;fill-opacity:1;fill-rule:evenodd;stroke:none;stroke-width:1px;stroke-linecap:butt;stroke-linejoin:miter;stroke-opacity:1" />
      <path
         transform="matrix(-0.6110799,0,0,-0.6036277,533.31351,826.46225)"
         d="M 246.47722 405.86456 A 40.911179 41.416256 0 1 1  164.65486,405.86456 A 40.911179 41.416256 0 1 1  246.47722 405.86456 z"
         sodipodi:ry="41.416256"
         sodipodi:rx="40.911179"
         sodipodi:cy="405.86456"
         sodipodi:cx="205.56604"
         id="path24831"
         style="fill:#c0c0c0;fill-opacity:1;fill-rule:evenodd;stroke:none;stroke-width:1.64651775;stroke-linecap:butt;stroke-linejoin:miter;stroke-miterlimit:4;stroke-dasharray:none;stroke-opacity:1"
         sodipodi:type="arc" />
    </g>
    <g
       id="g27840">
      <g
         id="g21764">
        <path
           style="fill:#c0c0c0;fill-opacity:1;fill-rule:evenodd;stroke:#000000;stroke-width:1px;stroke-linecap:butt;stroke-linejoin:miter;stroke-opacity:1"
           d="M 245,374.25 C 231.2,374.25 220,385.45002 220,399.25 C 220,404.87203 221.86378,410.0725 225,414.25 C 211.2,414.25 200,425.45002 200,439.25 C 200,453.05 211.2,464.24999 225,464.25 C 233.17797,464.25 240.43795,460.32672 245,454.25 C 249.56205,460.32672 256.82203,464.24999 265,464.25 C 278.8,464.25 289.99999,453.05002 290,439.25 C 290,425.45 278.79999,414.24999 265,414.25 C 268.13623,410.0725 270,404.87204 270,399.25 C 270,385.45 258.79999,374.24999 245,374.25 z "
           id="path2160" />
        <path
           sodipodi:type="arc"
           style="fill:#565656;fill-opacity:1;fill-rule:evenodd;stroke:#000000;stroke-width:1.64651775;stroke-linecap:butt;stroke-linejoin:miter;stroke-miterlimit:4;stroke-dasharray:none;stroke-opacity:1"
           id="path5101"
           sodipodi:cx="205.56604"
           sodipodi:cy="405.86456"
           sodipodi:rx="40.911179"
           sodipodi:ry="41.416256"
           d="M 246.47722 405.86456 A 40.911179 41.416256 0 1 1  164.65486,405.86456 A 40.911179 41.416256 0 1 1  246.47722 405.86456 z"
           transform="matrix(0.6110799,0,0,0.6036277,119.38272,244.25926)" />
      </g>
      <text
         id="text27742"
         y="426.37354"
         x="241.07715"
         style="font-size:12px;font-style:normal;font-weight:normal;fill:#000000;fill-opacity:1;stroke:none;stroke-width:1px;stroke-linecap:butt;stroke-linejoin:miter;stroke-opacity:1;font-family:Bitstream Vera Sans"
         xml:space="preserve"><tspan
           y="426.37354"
           x="241.07715"
           id="tspan27744"
           sodipodi:role="line">1</tspan></text>
      <text
         id="text27786"
         y="494.6221"
         x="241.34375"
         style="font-size:12px;font-style:normal;font-weight:normal;fill:#000000;fill-opacity:1;stroke:none;stroke-width:1px;stroke-linecap:butt;stroke-linejoin:miter;stroke-opacity:1;font-family:Bitstream Vera Sans"
         xml:space="preserve"><tspan
           y="494.6221"
           x="241.34375"
           id="tspan27788"
           sodipodi:role="line">2</tspan></text>
    </g>
    <g
       id="g27849">
      <g
         transform="translate(0,-3.5334839e-4)"
         id="g21758">
        <path
           sodipodi:type="arc"
           style="fill:#c0c0c0;fill-opacity:1;fill-rule:evenodd;stroke:#000000;stroke-width:1.64651775;stroke-linecap:butt;stroke-linejoin:miter;stroke-miterlimit:4;stroke-dasharray:none;stroke-opacity:1"
           id="path6076"
           sodipodi:cx="205.56604"
           sodipodi:cy="405.86456"
           sodipodi:rx="40.911179"
           sodipodi:ry="41.416256"
           d="M 246.47722 405.86456 A 40.911179 41.416256 0 1 1  164.65486,405.86456 A 40.911179 41.416256 0 1 1  246.47722 405.86456 z"
           transform="matrix(0.6110799,0,0,0.6036277,282.58748,154.25926)" />
        <path
           style="fill:#c0c0c0;fill-opacity:1;fill-rule:evenodd;stroke:#000000;stroke-width:1px;stroke-linecap:butt;stroke-linejoin:miter;stroke-opacity:1"
           d="M 388.19623,424.25 C 374.39623,424.25 363.19624,435.45 363.19623,449.25 C 363.19623,463.05 374.39624,474.25 388.19623,474.25 C 396.37399,474.25 403.63416,470.32644 408.19623,464.25 C 412.75828,470.32672 420.01826,474.25 428.19623,474.25 C 441.99623,474.25 453.19624,463.05 453.19623,449.25 C 453.19623,435.45 441.99624,424.25 428.19623,424.25 C 420.01826,424.25 412.75828,428.17328 408.19623,434.25 C 403.63416,428.17356 396.37399,424.25 388.19623,424.25 z "
           id="path6072" />
        <path
           sodipodi:type="arc"
           style="fill:#565656;fill-opacity:1;fill-rule:evenodd;stroke:#000000;stroke-width:1.64651775;stroke-linecap:butt;stroke-linejoin:miter;stroke-miterlimit:4;stroke-dasharray:none;stroke-opacity:1"
           id="path6078"
           sodipodi:cx="205.56604"
           sodipodi:cy="405.86456"
           sodipodi:rx="40.911179"
           sodipodi:ry="41.416256"
           d="M 246.47722 405.86456 A 40.911179 41.416256 0 1 1  164.65486,405.86456 A 40.911179 41.416256 0 1 1  246.47722 405.86456 z"
           transform="matrix(0.6110799,0,0,0.6036277,282.58748,244.25926)" />
        <path
           style="fill:#ff0000;fill-opacity:1;fill-rule:evenodd;stroke:#000000;stroke-width:1;stroke-linecap:butt;stroke-linejoin:miter;marker-start:none;stroke-miterlimit:4;stroke-dasharray:4, 1;stroke-dashoffset:0;stroke-opacity:1"
           d="M 408.19623,464.25 C 412.75828,470.32672 420.01826,474.25 428.19623,474.25 C 423.63416,468.17355 416.37399,464.24999 408.19623,464.25 z M 408.19623,464.25 C 400.01826,464.25 392.75828,468.17328 388.19623,474.25 C 396.37399,474.25 403.63416,470.32644 408.19623,464.25 z "
           id="path8072" />
      </g>
      <text
         id="text27746"
         y="494.6221"
         x="404.53998"
         style="font-size:12px;font-style:normal;font-weight:normal;fill:#000000;fill-opacity:1;stroke:none;stroke-width:1px;stroke-linecap:butt;stroke-linejoin:miter;stroke-opacity:1;font-family:Bitstream Vera Sans"
         xml:space="preserve"><tspan
           y="494.6221"
           x="404.53998"
           id="tspan27748"
           sodipodi:role="line">2</tspan></text>
      <g
         id="g27798">
        <text
           xml:space="preserve"
           style="font-size:12px;font-style:normal;font-weight:normal;fill:#000000;fill-opacity:1;stroke:none;stroke-width:1px;stroke-linecap:butt;stroke-linejoin:miter;stroke-opacity:1;font-family:Bitstream Vera Sans"
           x="398.54291"
           y="403.76529"
           id="text27790"><tspan
             sodipodi:role="line"
             id="tspan27792"
             x="398.54291"
             y="403.76529">1.1</tspan></text>
        <text
           xml:space="preserve"
           style="font-size:12px;font-style:normal;font-weight:normal;fill:#000000;fill-opacity:1;stroke:none;stroke-width:1px;stroke-linecap:butt;stroke-linejoin:miter;stroke-opacity:1;font-family:Bitstream Vera Sans"
           x="398.58978"
           y="452.30972"
           id="text27794"><tspan
             sodipodi:role="line"
             id="tspan27796"
             x="398.58978"
             y="452.30972">1.2</tspan></text>
      </g>
    </g>
    <g
       id="g27863">
      <g
         transform="translate(0,-8.586068)"
         id="g21752">
        <path
           sodipodi:type="arc"
           style="fill:#565656;fill-opacity:1;fill-rule:evenodd;stroke:#000000;stroke-width:1.64651775;stroke-linecap:butt;stroke-linejoin:miter;stroke-miterlimit:4;stroke-dasharray:none;stroke-opacity:1"
           id="path13982"
           sodipodi:cx="205.56604"
           sodipodi:cy="405.86456"
           sodipodi:rx="40.911179"
           sodipodi:ry="41.416256"
           d="M 246.47722 405.86456 A 40.911179 41.416256 0 1 1  164.65486,405.86456 A 40.911179 41.416256 0 1 1  246.47722 405.86456 z"
           transform="matrix(-0.6110799,0,0,-0.6036277,697.0012,742.82716)" />
        <path
           style="fill:#c0c0c0;fill-opacity:1;fill-rule:evenodd;stroke:#000000;stroke-width:1px;stroke-linecap:butt;stroke-linejoin:miter;stroke-opacity:1"
           d="M 591.39245,472.83642 C 605.19245,472.83642 616.39244,461.63642 616.39245,447.83642 C 616.39245,434.03642 605.19244,422.83642 591.39245,422.83642 C 583.21469,422.83642 575.95452,426.75998 571.39245,432.83642 C 566.8304,426.7597 559.57042,422.83642 551.39245,422.83642 C 537.59245,422.83642 526.39244,434.03642 526.39245,447.83642 C 526.39245,461.63642 537.59244,472.83642 551.39245,472.83642 C 559.57042,472.83642 566.8304,468.91314 571.39245,462.83642 C 575.95452,468.91286 583.21469,472.83642 591.39245,472.83642 z "
           id="path13984" />
        <path
           sodipodi:type="arc"
           style="fill:#c0c0c0;fill-opacity:1;fill-rule:evenodd;stroke:#000000;stroke-width:1.64651775;stroke-linecap:butt;stroke-linejoin:miter;stroke-miterlimit:4;stroke-dasharray:none;stroke-opacity:1"
           id="path13986"
           sodipodi:cx="205.56604"
           sodipodi:cy="405.86456"
           sodipodi:rx="40.911179"
           sodipodi:ry="41.416256"
           d="M 246.47722 405.86456 A 40.911179 41.416256 0 1 1  164.65486,405.86456 A 40.911179 41.416256 0 1 1  246.47722 405.86456 z"
           transform="matrix(-0.6110799,0,0,-0.6036277,697.0012,652.82716)" />
        <path
           style="fill:#ff0000;fill-opacity:1;fill-rule:evenodd;stroke:#000000;stroke-width:1;stroke-linecap:butt;stroke-linejoin:miter;stroke-miterlimit:4;stroke-dasharray:3, 1;stroke-dashoffset:0;stroke-opacity:1"
           d="M 571.39245,432.83642 C 566.8304,426.7597 559.57042,422.83642 551.39245,422.83642 C 555.95452,428.91287 563.21469,432.83643 571.39245,432.83642 z M 571.39245,432.83642 C 579.57042,432.83642 586.8304,428.91314 591.39245,422.83642 C 583.21469,422.83642 575.95452,426.75998 571.39245,432.83642 z "
           id="path13988" />
      </g>
      <text
         id="text27762"
         y="494.6221"
         x="567.73621"
         style="font-size:12px;font-style:normal;font-weight:normal;fill:#000000;fill-opacity:1;stroke:none;stroke-width:1px;stroke-linecap:butt;stroke-linejoin:miter;stroke-opacity:1;font-family:Bitstream Vera Sans"
         xml:space="preserve"><tspan
           y="494.6221"
           x="567.73621"
           id="tspan27764"
           sodipodi:role="line">2</tspan></text>
      <text
         id="text27806"
         y="403.76529"
         x="561.73914"
         style="font-size:12px;font-style:normal;font-weight:normal;fill:#000000;fill-opacity:1;stroke:none;stroke-width:1px;stroke-linecap:butt;stroke-linejoin:miter;stroke-opacity:1;font-family:Bitstream Vera Sans"
         xml:space="preserve"><tspan
           y="403.76529"
           x="561.73914"
           id="tspan27808"
           sodipodi:role="line">1.1</tspan></text>
      <text
         id="text27810"
         y="442.30972"
         x="561.78601"
         style="font-size:12px;font-style:normal;font-weight:normal;fill:#000000;fill-opacity:1;stroke:none;stroke-width:1px;stroke-linecap:butt;stroke-linejoin:miter;stroke-opacity:1;font-family:Bitstream Vera Sans"
         xml:space="preserve"><tspan
           y="442.30972"
           x="561.78601"
           id="tspan27812"
           sodipodi:role="line">1.2</tspan></text>
    </g>
  </g>
</svg>
