<?xml version="1.0" encoding="UTF-8" standalone="no"?>
<!-- Created with Inkscape (http://www.inkscape.org/) -->
<svg
   xmlns:dc="http://purl.org/dc/elements/1.1/"
   xmlns:cc="http://web.resource.org/cc/"
   xmlns:rdf="http://www.w3.org/1999/02/22-rdf-syntax-ns#"
   xmlns:svg="http://www.w3.org/2000/svg"
   xmlns="http://www.w3.org/2000/svg"
   xmlns:sodipodi="http://sodipodi.sourceforge.net/DTD/sodipodi-0.dtd"
   xmlns:inkscape="http://www.inkscape.org/namespaces/inkscape"
   width="744.09448819"
   height="1052.3622047"
   id="svg2189"
   sodipodi:version="0.32"
   inkscape:version="0.45"
   sodipodi:docname="trans-rot-scale.svg"
   sodipodi:docbase="/Users/gestalt/Desktop"
   inkscape:output_extension="org.inkscape.output.svg.inkscape"
   sodipodi:modified="true">
  <defs
     id="defs2191">
    <marker
       inkscape:stockid="TriangleOutL"
       orient="auto"
       refY="0.0"
       refX="0.0"
       id="TriangleOutL"
       style="overflow:visible">
      <path
         id="path3244"
         d="M 5.77,0.0 L -2.88,5.0 L -2.88,-5.0 L 5.77,0.0 z "
         style="fill-rule:evenodd;stroke:#000000;stroke-width:1.0pt;marker-start:none"
         transform="scale(0.8)" />
    </marker>
  </defs>
  <sodipodi:namedview
     id="base"
     pagecolor="#ffffff"
     bordercolor="#666666"
     borderopacity="1.0"
     gridtolerance="10000"
     guidetolerance="10"
     objecttolerance="10"
     inkscape:pageopacity="0.0"
     inkscape:pageshadow="2"
     inkscape:zoom="0.5"
     inkscape:cx="426.50097"
     inkscape:cy="687.32488"
     inkscape:document-units="px"
     inkscape:current-layer="layer1"
     inkscape:window-width="879"
     inkscape:window-height="983"
     inkscape:window-x="384"
     inkscape:window-y="22" />
  <metadata
     id="metadata2194">
    <rdf:RDF>
      <cc:Work
         rdf:about="">
        <dc:format>image/svg+xml</dc:format>
        <dc:type
           rdf:resource="http://purl.org/dc/dcmitype/StillImage" />
      </cc:Work>
    </rdf:RDF>
  </metadata>
  <g
     inkscape:label="Layer 1"
     inkscape:groupmode="layer"
     id="layer1">
    <g
       id="g2205"
       transform="translate(-43,-395.33288)">
      <g
         transform="translate(2,0)"
         id="g3192">
        <path
           sodipodi:type="arc"
           style="fill:none;fill-opacity:1;stroke:#000000;stroke-width:1.28432739;stroke-miterlimit:4;stroke-dasharray:none;stroke-opacity:1"
           id="path2168"
           sodipodi:cx="207.85715"
           sodipodi:cy="287.71933"
           sodipodi:rx="20"
           sodipodi:ry="18.928572"
           d="M 227.85715 287.71933 A 20 18.928572 0 1 1  187.85715,287.71933 A 20 18.928572 0 1 1  227.85715 287.71933 z"
           transform="matrix(0.769786,0,0,0.7875507,14.25667,263.55674)" />
        <g
           id="g3145"
           transform="matrix(0.219986,-0.219986,0.219986,0.219986,41.237564,464.68852)"
           style="stroke-width:3.21432638;stroke-miterlimit:4;stroke-dasharray:none">
          <path
             id="path3141"
             d="M 244.47656,399.67245 L 244.47656,320.76619"
             style="fill:none;fill-rule:evenodd;stroke:#000000;stroke-width:3.21432638;stroke-linecap:butt;stroke-linejoin:miter;stroke-miterlimit:4;stroke-dasharray:none;stroke-opacity:1" />
          <path
             id="path3143"
             d="M 205.02344,360.21932 L 283.92969,360.21932"
             style="fill:none;fill-rule:evenodd;stroke:#000000;stroke-width:3.21432638;stroke-linecap:butt;stroke-linejoin:miter;stroke-miterlimit:4;stroke-dasharray:none;stroke-opacity:1" />
        </g>
      </g>
      <path
         id="path3149"
         d="M 192.258,490.16565 L 254.30594,490.02804"
         style="fill:none;fill-rule:evenodd;stroke:#000000;stroke-width:1;stroke-linecap:butt;stroke-linejoin:miter;marker-end:url(#TriangleOutL);stroke-miterlimit:4;stroke-dasharray:none;stroke-opacity:1" />
      <g
         transform="translate(-2,0)"
         id="g3188">
        <path
           sodipodi:type="arc"
           style="fill:none;fill-opacity:1;stroke:#000000;stroke-width:1.28432739;stroke-miterlimit:4;stroke-dasharray:none;stroke-opacity:1"
           id="path3357"
           sodipodi:cx="207.85715"
           sodipodi:cy="287.71933"
           sodipodi:rx="20"
           sodipodi:ry="18.928572"
           d="M 227.85715 287.71933 A 20 18.928572 0 1 1  187.85715,287.71933 A 20 18.928572 0 1 1  227.85715 287.71933 z"
           transform="matrix(0.769786,0,0,0.7875506,117.7323,263.28108)" />
        <path
           sodipodi:type="arc"
           style="fill:#000000;fill-opacity:1;stroke:none;stroke-width:3.41883516;stroke-miterlimit:4;stroke-dasharray:none;stroke-opacity:1"
           id="path3369"
           sodipodi:cx="441.78571"
           sodipodi:cy="298.79074"
           sodipodi:rx="4.6428571"
           sodipodi:ry="5"
           d="M 446.42856 298.79074 A 4.6428571 5 0 1 1  437.14285,298.79074 A 4.6428571 5 0 1 1  446.42856 298.79074 z"
           transform="matrix(0.6266157,0,0,0.5818573,0.9079628,316.02104)" />
      </g>
    </g>
    <g
       id="g3235"
       transform="translate(136.90878,-473.06998)">
      <g
         transform="translate(-8.75,-0.5)"
         id="g3226">
        <path
           sodipodi:type="arc"
           style="fill:none;fill-opacity:1;stroke:#000000;stroke-width:1.28432739;stroke-miterlimit:4;stroke-dasharray:none;stroke-opacity:1"
           id="path3200"
           sodipodi:cx="207.85715"
           sodipodi:cy="287.71933"
           sodipodi:rx="20"
           sodipodi:ry="18.928572"
           d="M 227.85715 287.71933 A 20 18.928572 0 1 1  187.85715,287.71933 A 20 18.928572 0 1 1  227.85715 287.71933 z"
           transform="matrix(0.769786,0,0,0.7875507,119.2323,341.51862)" />
        <g
           id="g3202"
           transform="matrix(0.219986,-0.219986,0.219986,0.219986,146.21319,542.6504)"
           style="stroke-width:3.21432638;stroke-miterlimit:4;stroke-dasharray:none">
          <path
             id="path3204"
             d="M 244.47656,399.67245 L 244.47656,320.76619"
             style="fill:none;fill-rule:evenodd;stroke:#000000;stroke-width:3.21432638;stroke-linecap:butt;stroke-linejoin:miter;stroke-miterlimit:4;stroke-dasharray:none;stroke-opacity:1" />
          <path
             id="path3206"
             d="M 205.02344,360.21932 L 283.92969,360.21932"
             style="fill:none;fill-rule:evenodd;stroke:#000000;stroke-width:3.21432638;stroke-linecap:butt;stroke-linejoin:miter;stroke-miterlimit:4;stroke-dasharray:none;stroke-opacity:1" />
        </g>
        <path
           sodipodi:type="arc"
           style="fill:#000000;fill-opacity:1;stroke:none;stroke-width:3.41883516;stroke-miterlimit:4;stroke-dasharray:none;stroke-opacity:1"
           id="path3212"
           sodipodi:cx="441.78571"
           sodipodi:cy="298.79074"
           sodipodi:rx="4.6428571"
           sodipodi:ry="5"
           d="M 446.42856 298.79074 A 4.6428571 5 0 1 1  437.14285,298.79074 A 4.6428571 5 0 1 1  446.42856 298.79074 z"
           transform="matrix(0.6266157,0,0,0.5818573,2.4079628,394.25861)" />
      </g>
      <path
         transform="matrix(1.5596269,-0.1069468,9.7346756e-2,1.4628507,-122.64012,-258.05015)"
         sodipodi:open="true"
         sodipodi:end="5.8904862"
         sodipodi:start="0.39269908"
         d="M 214.17833,590.26238 A 30.5,31.75 0 1 1 214.17833,565.96198"
         sodipodi:ry="31.75"
         sodipodi:rx="30.5"
         sodipodi:cy="578.11218"
         sodipodi:cx="186"
         id="path3233"
         style="opacity:1;fill:none;fill-opacity:1;stroke:#000000;stroke-width:0.66054285;stroke-linejoin:bevel;marker-end:url(#TriangleOutL);stroke-miterlimit:4;stroke-dasharray:none;stroke-dashoffset:0;stroke-opacity:1"
         sodipodi:type="arc" />
    </g>
    <g
       id="g2216"
       transform="translate(306.5,-591.43261)">
      <g
         transform="translate(25,215.84973)"
         id="g3257">
        <path
           sodipodi:type="arc"
           style="fill:none;fill-opacity:1;stroke:#000000;stroke-width:1.28432739;stroke-miterlimit:4;stroke-dasharray:none;stroke-opacity:1"
           id="path3259"
           sodipodi:cx="207.85715"
           sodipodi:cy="287.71933"
           sodipodi:rx="20"
           sodipodi:ry="18.928572"
           d="M 227.85715 287.71933 A 20 18.928572 0 1 1  187.85715,287.71933 A 20 18.928572 0 1 1  227.85715 287.71933 z"
           transform="matrix(0.769786,0,0,0.7875507,14.25667,263.55674)" />
        <g
           id="g3261"
           transform="matrix(0.219986,-0.219986,0.219986,0.219986,41.237564,464.68852)"
           style="stroke-width:3.21432638;stroke-miterlimit:4;stroke-dasharray:none">
          <path
             id="path3263"
             d="M 244.47656,399.67245 L 244.47656,320.76619"
             style="fill:none;fill-rule:evenodd;stroke:#000000;stroke-width:3.21432638;stroke-linecap:butt;stroke-linejoin:miter;stroke-miterlimit:4;stroke-dasharray:none;stroke-opacity:1" />
          <path
             id="path3265"
             d="M 205.02344,360.21932 L 283.92969,360.21932"
             style="fill:none;fill-rule:evenodd;stroke:#000000;stroke-width:3.21432638;stroke-linecap:butt;stroke-linejoin:miter;stroke-miterlimit:4;stroke-dasharray:none;stroke-opacity:1" />
        </g>
      </g>
      <path
         sodipodi:nodetypes="cccc"
         id="path3267"
         d="M 203.50936,691.01538 L 215.52135,664.48098 L 231.03333,708.44658 L 240.8073,685.37777"
         style="fill:none;fill-rule:evenodd;stroke:#000000;stroke-width:1;stroke-linecap:butt;stroke-linejoin:miter;marker-end:url(#TriangleOutL);stroke-miterlimit:4;stroke-opacity:1" />
      <g
         transform="translate(-28.5,176.34973)"
         id="g3269">
        <path
           sodipodi:type="arc"
           style="fill:none;fill-opacity:1;stroke:#000000;stroke-width:1.28432739;stroke-miterlimit:4;stroke-dasharray:none;stroke-opacity:1"
           id="path3271"
           sodipodi:cx="207.85715"
           sodipodi:cy="287.71933"
           sodipodi:rx="20"
           sodipodi:ry="18.928572"
           d="M 227.85715 287.71933 A 20 18.928572 0 1 1  187.85715,287.71933 A 20 18.928572 0 1 1  227.85715 287.71933 z"
           transform="matrix(0.769786,0,0,0.7875506,117.7323,263.28108)" />
        <path
           sodipodi:type="arc"
           style="fill:#000000;fill-opacity:1;stroke:none;stroke-width:3.41883516;stroke-miterlimit:4;stroke-dasharray:none;stroke-opacity:1"
           id="path3273"
           sodipodi:cx="441.78571"
           sodipodi:cy="298.79074"
           sodipodi:rx="4.6428571"
           sodipodi:ry="5"
           d="M 446.42856 298.79074 A 4.6428571 5 0 1 1  437.14285,298.79074 A 4.6428571 5 0 1 1  446.42856 298.79074 z"
           transform="matrix(0.6266157,0,0,0.5818573,0.9079628,316.02104)" />
      </g>
    </g>
  </g>
</svg>
